<svg width="120" height="180" viewBox="0 0 120 180" fill="none" xmlns="http://www.w3.org/2000/svg">
<path d="M19.5023 53.3132C12.6294 52.4194 6.17561 57.3252 6.9412 64.2135C7.68685 70.9224 9.72898 77.4636 12.9971 83.4601C18.2812 93.1559 26.4992 100.93 36.4732 105.668C46.4472 110.406 57.6651 111.865 68.5191 109.835C79.3732 107.806 89.3062 102.393 96.8945 94.3709C104.483 86.3493 109.337 76.1312 110.761 65.1812C112.185 54.2313 110.106 43.1116 104.822 33.4159C99.5375 23.7202 91.3195 15.9462 81.3455 11.2081C75.1769 8.27777 68.5324 6.60172 61.7925 6.22946C54.8724 5.84724 50.3322 12.5633 51.6059 19.376L55.7349 41.4598C57.3018 49.8401 50.2355 57.31 41.7812 56.2105L19.5023 53.3132Z" fill="#79D1CC"/>
<path d="M90.9899 58.5162C96.4127 58.5162 100.925 54.0851 99.636 48.849C98.3805 43.7494 96.136 38.9091 92.9953 34.6119C87.917 27.6638 80.7564 22.4921 72.5396 19.8382C64.3228 17.1842 55.4717 17.1842 47.2549 19.8382C39.0381 22.4921 31.8775 27.6638 26.7992 34.6119C21.721 41.56 18.9858 49.9279 18.9858 58.5162C18.9858 67.1046 21.721 75.4725 26.7992 82.4206C31.8775 89.3687 39.0381 94.5403 47.2549 97.1943C52.3368 98.8357 57.6613 99.4619 62.9283 99.073C68.3361 98.6737 71.1811 93.0383 69.5054 87.9116L64.0734 71.2928C62.0121 64.9864 66.7411 58.5162 73.4116 58.5162L90.9899 58.5162Z" fill="#FF6262"/>
<path d="M54.0358 78.4861C53.0951 81.9166 55.1322 85.5444 58.6879 85.6426C62.151 85.7383 65.6206 85.1631 68.9001 83.9262C74.2026 81.9262 78.7359 78.2988 81.8501 73.564C84.9644 68.8292 86.4998 63.2301 86.2362 57.569C85.9727 51.908 83.9237 46.4757 80.3831 42.0507C76.8424 37.6257 71.9917 34.4353 66.5263 32.9366C61.0609 31.4378 55.2613 31.7078 49.9588 33.7079C44.6562 35.7079 40.123 39.3352 37.0087 44.07C35.0826 46.9983 33.7605 50.2573 33.0943 53.6571C32.4103 57.1477 35.503 59.9309 39.0562 59.7655L50.5743 59.2293C54.9451 59.0258 58.2422 63.1464 57.0851 67.3661L54.0358 78.4861Z" fill="#56585C"/>
<path d="M13.047 157.407C11.221 157.407 9.51378 157.061 7.92545 156.37C6.34792 155.667 4.96488 154.689 3.77634 153.436C2.58779 152.172 1.65856 150.697 0.988655 149.011C0.329552 147.326 0 145.489 0 143.501C0 141.599 0.318747 139.811 0.95624 138.136C1.59373 136.461 2.50675 134.992 3.6953 133.728C4.88385 132.453 6.3101 131.459 7.97407 130.746C9.63803 130.022 11.4911 129.66 13.5332 129.66C14.6245 129.66 15.7536 129.773 16.9206 130C18.0875 130.227 19.2274 130.573 20.3404 131.037C21.4533 131.491 22.4689 132.064 23.3874 132.755L20.4862 137.601C19.5786 136.845 18.4927 136.261 17.2285 135.851C15.9643 135.44 14.765 135.235 13.6305 135.235C12.5176 135.235 11.5343 135.429 10.6807 135.818C9.82712 136.207 9.10859 136.759 8.52512 137.472C7.94165 138.174 7.49865 139.017 7.19611 140C6.90438 140.972 6.75851 142.048 6.75851 143.225C6.75851 144.522 6.92599 145.689 7.26094 146.726C7.59589 147.763 8.06051 148.649 8.65478 149.384C9.25986 150.119 9.96759 150.681 10.778 151.07C11.5883 151.459 12.4581 151.653 13.3874 151.653C14.1437 151.653 14.8568 151.534 15.5267 151.297C16.2075 151.048 16.8071 150.708 17.3258 150.276C17.8552 149.833 18.2658 149.325 18.5575 148.752C18.8601 148.169 19.0113 147.547 19.0113 146.888V146.694H13.0308V141.864H25.3809V146.532C25.3809 148.055 25.0459 149.481 24.376 150.81C23.7169 152.129 22.8093 153.285 21.6532 154.279C20.5078 155.262 19.195 156.029 17.7148 156.58C16.2345 157.131 14.6786 157.407 13.047 157.407Z" fill="black"/>
<path d="M31.1082 156.888V130.146H37.3481V151.41H46.4566V156.888H31.1082Z" fill="black"/>
<path d="M62.4521 157.407C60.5829 157.407 58.8325 157.05 57.2009 156.337C55.5694 155.624 54.1377 154.635 52.9059 153.371C51.6742 152.096 50.7071 150.621 50.0048 148.947C49.3133 147.261 48.9675 145.457 48.9675 143.533C48.9675 141.61 49.3133 139.811 50.0048 138.136C50.7071 136.451 51.6742 134.976 52.9059 133.712C54.1377 132.437 55.5694 131.442 57.2009 130.729C58.8325 130.016 60.5829 129.66 62.4521 129.66C64.3214 129.66 66.0718 130.016 67.7034 130.729C69.3349 131.442 70.7666 132.437 71.9983 133.712C73.2301 134.976 74.1917 136.451 74.8833 138.136C75.5856 139.811 75.9367 141.61 75.9367 143.533C75.9367 145.457 75.5856 147.261 74.8833 148.947C74.1917 150.621 73.2301 152.096 71.9983 153.371C70.7666 154.635 69.3349 155.624 67.7034 156.337C66.0718 157.05 64.3214 157.407 62.4521 157.407ZM62.4521 151.378C63.4462 151.378 64.3538 151.189 65.175 150.81C66.007 150.432 66.7201 149.897 67.3144 149.206C67.9195 148.504 68.3841 147.677 68.7082 146.726C69.0432 145.764 69.2107 144.7 69.2107 143.533C69.2107 142.366 69.0432 141.307 68.7082 140.357C68.3841 139.395 67.9195 138.568 67.3144 137.877C66.7201 137.174 66.007 136.634 65.175 136.256C64.3538 135.878 63.4462 135.689 62.4521 135.689C61.4581 135.689 60.5451 135.878 59.7131 136.256C58.8919 136.634 58.1788 137.174 57.5737 137.877C56.9794 138.568 56.5148 139.395 56.1799 140.357C55.8557 141.307 55.6936 142.366 55.6936 143.533C55.6936 144.7 55.8557 145.764 56.1799 146.726C56.5148 147.677 56.9794 148.504 57.5737 149.206C58.1788 149.897 58.8919 150.432 59.7131 150.81C60.5451 151.189 61.4581 151.378 62.4521 151.378Z" fill="black"/>
<path d="M80.1365 156.888V130.146H88.5482C91.0981 130.146 93.1079 130.702 94.5773 131.815C96.0468 132.928 96.7816 134.608 96.7816 136.856C96.7816 139.579 95.6795 141.523 93.4752 142.69C95.3121 142.993 96.7167 143.706 97.6892 144.83C98.6616 145.954 99.1478 147.428 99.1478 149.254C99.1478 150.843 98.7859 152.21 98.0619 153.355C97.3488 154.489 96.3332 155.365 95.0149 155.981C93.7075 156.586 92.1624 156.888 90.3796 156.888H80.1365ZM86.3926 140.535H87.0409C88.2402 140.535 89.1532 140.292 89.7799 139.806C90.4174 139.319 90.7362 138.617 90.7362 137.699C90.7362 136.78 90.4282 136.094 89.8124 135.64C89.2073 135.186 88.2835 134.959 87.0409 134.959H86.3926V140.535ZM86.3926 152.058H88.1754C89.6557 152.058 90.7578 151.81 91.4817 151.313C92.2057 150.816 92.5676 150.065 92.5676 149.06C92.5676 148.033 92.1948 147.256 91.4493 146.726C90.7038 146.186 89.6125 145.916 88.1754 145.916H86.3926V152.058Z" fill="black"/>
<path d="M104.205 156.888V130.146H119.57V135.624H110.445V140.746H119.181V146.224H110.445V151.41H119.57V156.888H104.205Z" fill="black"/>
<path d="M35.4499 180C34.5206 180 33.6562 179.822 32.8567 179.465C32.0625 179.109 31.3656 178.614 30.7659 177.982C30.1716 177.35 29.707 176.615 29.3721 175.778C29.0371 174.935 28.8696 174.03 28.8696 173.063C28.8696 172.172 29.0182 171.31 29.3153 170.478C29.6125 169.646 30.0474 168.906 30.62 168.258C31.1927 167.604 31.8923 167.085 32.7189 166.702C33.5509 166.318 34.4936 166.126 35.5471 166.126C36.2386 166.126 36.8923 166.213 37.5082 166.386C38.1241 166.559 38.6886 166.799 39.2019 167.107C39.7205 167.415 40.1716 167.777 40.5552 168.193L39.915 169.133C39.4072 168.555 38.7697 168.093 38.0025 167.747C37.2354 167.396 36.4115 167.22 35.5309 167.22C34.6881 167.22 33.9345 167.377 33.27 167.69C32.6108 168.004 32.0517 168.433 31.5925 168.979C31.1333 169.519 30.7848 170.138 30.5471 170.835C30.3094 171.526 30.1905 172.256 30.1905 173.023C30.1905 173.849 30.3229 174.619 30.5876 175.332C30.8577 176.04 31.2332 176.661 31.714 177.196C32.1949 177.726 32.7567 178.139 33.3996 178.436C34.0425 178.728 34.734 178.874 35.4742 178.874C36.0738 178.874 36.6627 178.774 37.2408 178.574C37.8188 178.374 38.3375 178.085 38.7967 177.707C39.2613 177.328 39.6287 176.877 39.8988 176.353C40.1743 175.824 40.3121 175.23 40.3121 174.571V174.109H35.385V173.112H41.5763V174.303C41.5763 175.249 41.398 176.078 41.0414 176.791C40.6849 177.504 40.2094 178.098 39.6152 178.574C39.0209 179.044 38.3618 179.4 37.6379 179.643C36.9139 179.881 36.1846 180 35.4499 180Z" fill="black"/>
<path d="M51.0704 180C49.5307 180 48.3719 179.579 47.5939 178.736C46.8214 177.893 46.4351 176.632 46.4351 174.951V166.37H47.6669V174.684C47.6669 176.062 47.9478 177.091 48.5096 177.771C49.0769 178.447 49.9305 178.784 51.0704 178.784C52.2049 178.784 53.0531 178.447 53.615 177.771C54.1823 177.091 54.4659 176.062 54.4659 174.684V166.37H55.7058V174.951C55.7058 176.632 55.3168 177.893 54.5388 178.736C53.7663 179.579 52.6101 180 51.0704 180Z" fill="black"/>
<path d="M61.4822 179.741V166.37H62.714V179.741H61.4822Z" fill="black"/>
<path d="M68.6901 179.741V166.37H71.7047C72.6501 166.37 73.5307 166.54 74.3465 166.88C75.1677 167.22 75.8835 167.696 76.494 168.306C77.1045 168.911 77.5826 169.619 77.9283 170.429C78.2741 171.24 78.447 172.118 78.447 173.063C78.447 174.003 78.2768 174.878 77.9364 175.689C77.5961 176.499 77.118 177.21 76.5021 177.82C75.8916 178.425 75.1758 178.898 74.3546 179.238C73.5388 179.573 72.6555 179.741 71.7047 179.741H68.6901ZM69.9218 178.639H71.5912C72.38 178.639 73.1093 178.498 73.7792 178.217C74.4545 177.931 75.0434 177.536 75.5458 177.034C76.0537 176.526 76.448 175.935 76.729 175.259C77.0099 174.579 77.1504 173.844 77.1504 173.055C77.1504 172.266 77.0099 171.534 76.729 170.859C76.448 170.184 76.0537 169.592 75.5458 169.084C75.0434 168.576 74.4545 168.182 73.7792 167.901C73.1039 167.615 72.3746 167.472 71.5912 167.472H69.9218V178.639Z" fill="black"/>
<path d="M83.5902 179.741V166.37H90.3244V167.455H84.8219V172.496H90.1299V173.582H84.8219V178.655H90.3244V179.741H83.5902Z" fill="black"/>
</svg>
