<svg width="120" height="180" viewBox="0 0 120 180" fill="none" xmlns="http://www.w3.org/2000/svg">
<g clip-path="url(#clip0_8_355)">
<path d="M19.5023 53.3132C12.6294 52.4194 6.17561 57.3252 6.9412 64.2135C7.68685 70.9224 9.72898 77.4636 12.9971 83.4602C18.2812 93.1559 26.4992 100.93 36.4732 105.668C46.4472 110.406 57.6651 111.865 68.5191 109.835C79.3732 107.806 89.3062 102.393 96.8945 94.3709C104.483 86.3493 109.337 76.1312 110.761 65.1813C112.185 54.2313 110.106 43.1116 104.822 33.4159C99.5375 23.7202 91.3195 15.9462 81.3455 11.2081C75.1769 8.27778 68.5324 6.60174 61.7925 6.22947C54.8724 5.84725 50.3322 12.5633 51.6059 19.376L55.7349 41.4598C57.3018 49.8401 50.2355 57.31 41.7812 56.2105L19.5023 53.3132Z" fill="#79D1CC"/>
<path d="M90.9904 58.5162C96.4132 58.5162 100.926 54.085 99.6365 48.849C98.381 43.7493 96.1365 38.909 92.9958 34.6118C87.9175 27.6637 80.7569 22.4921 72.5401 19.8381C64.3233 17.1842 55.4722 17.1842 47.2554 19.8381C39.0386 22.4921 31.878 27.6637 26.7997 34.6118C21.7215 41.5599 18.9863 49.9278 18.9863 58.5162C18.9863 67.1045 21.7215 75.4724 26.7997 82.4205C31.878 89.3686 39.0386 94.5403 47.2554 97.1942C52.3373 98.8356 57.6618 99.4619 62.9288 99.0729C68.3366 98.6736 71.1816 93.0382 69.5059 87.9115L64.0739 71.2928C62.0126 64.9864 66.7415 58.5162 73.4121 58.5162L90.9904 58.5162Z" fill="#FF6262"/>
<path d="M54.0353 78.4862C53.0946 81.9166 55.1318 85.5444 58.6875 85.6427C62.1505 85.7383 65.6201 85.1631 68.8996 83.9262C74.2021 81.9262 78.7354 78.2988 81.8497 73.564C84.9639 68.8293 86.4993 63.2301 86.2358 57.5691C85.9722 51.908 83.9233 46.4757 80.3826 42.0507C76.8419 37.6258 71.9912 34.4353 66.5258 32.9366C61.0604 31.4379 55.2608 31.7079 49.9583 33.7079C44.6557 35.7079 40.1225 39.3352 37.0082 44.07C35.0821 46.9984 33.76 50.2573 33.0938 53.6571C32.4098 57.1478 35.5026 59.9309 39.0558 59.7655L50.5738 59.2293C54.9446 59.0258 58.2418 63.1464 57.0846 67.3662L54.0353 78.4862Z" fill="#56585C"/>
<path d="M13.047 157.407C11.221 157.407 9.51378 157.061 7.92545 156.37C6.34792 155.667 4.96488 154.689 3.77634 153.436C2.58779 152.172 1.65856 150.697 0.988655 149.011C0.329552 147.326 0 145.489 0 143.501C0 141.599 0.318747 139.811 0.95624 138.136C1.59373 136.461 2.50675 134.992 3.6953 133.728C4.88385 132.453 6.3101 131.459 7.97407 130.746C9.63803 130.022 11.4911 129.66 13.5332 129.66C14.6245 129.66 15.7536 129.773 16.9206 130C18.0875 130.227 19.2274 130.573 20.3404 131.037C21.4533 131.491 22.4689 132.064 23.3874 132.755L20.4862 137.601C19.5786 136.845 18.4927 136.262 17.2285 135.851C15.9643 135.44 14.765 135.235 13.6305 135.235C12.5176 135.235 11.5343 135.43 10.6807 135.819C9.82712 136.207 9.10859 136.759 8.52512 137.472C7.94165 138.174 7.49865 139.017 7.19611 140C6.90438 140.972 6.75851 142.048 6.75851 143.225C6.75851 144.522 6.92599 145.689 7.26094 146.726C7.59589 147.763 8.06051 148.649 8.65478 149.384C9.25986 150.119 9.96759 150.681 10.778 151.07C11.5883 151.459 12.4581 151.653 13.3874 151.653C14.1437 151.653 14.8568 151.534 15.5267 151.297C16.2075 151.048 16.8071 150.708 17.3258 150.276C17.8552 149.833 18.2658 149.325 18.5575 148.752C18.8601 148.169 19.0113 147.547 19.0113 146.888V146.694H13.0308V141.864H25.3809V146.532C25.3809 148.055 25.0459 149.481 24.376 150.81C23.7169 152.129 22.8093 153.285 21.6532 154.279C20.5078 155.262 19.195 156.029 17.7148 156.58C16.2345 157.131 14.6786 157.407 13.047 157.407Z" fill="black"/>
<path d="M31.1082 156.888V130.146H37.3481V151.41H46.4566V156.888H31.1082Z" fill="black"/>
<path d="M62.4521 157.407C60.5829 157.407 58.8325 157.05 57.2009 156.337C55.5694 155.624 54.1377 154.635 52.9059 153.371C51.6742 152.096 50.7071 150.621 50.0048 148.947C49.3133 147.261 48.9675 145.457 48.9675 143.533C48.9675 141.61 49.3133 139.811 50.0048 138.136C50.7071 136.451 51.6742 134.976 52.9059 133.712C54.1377 132.437 55.5694 131.442 57.2009 130.729C58.8325 130.016 60.5829 129.66 62.4521 129.66C64.3214 129.66 66.0718 130.016 67.7034 130.729C69.3349 131.442 70.7666 132.437 71.9983 133.712C73.2301 134.976 74.1917 136.451 74.8833 138.136C75.5856 139.811 75.9367 141.61 75.9367 143.533C75.9367 145.457 75.5856 147.261 74.8833 148.947C74.1917 150.621 73.2301 152.096 71.9983 153.371C70.7666 154.635 69.3349 155.624 67.7034 156.337C66.0718 157.05 64.3214 157.407 62.4521 157.407ZM62.4521 151.378C63.4462 151.378 64.3538 151.189 65.175 150.81C66.007 150.432 66.7201 149.897 67.3144 149.206C67.9195 148.504 68.3841 147.677 68.7082 146.726C69.0432 145.764 69.2107 144.7 69.2107 143.533C69.2107 142.366 69.0432 141.307 68.7082 140.357C68.3841 139.395 67.9195 138.568 67.3144 137.877C66.7201 137.175 66.007 136.634 65.175 136.256C64.3538 135.878 63.4462 135.689 62.4521 135.689C61.4581 135.689 60.5451 135.878 59.7131 136.256C58.8919 136.634 58.1788 137.175 57.5737 137.877C56.9794 138.568 56.5148 139.395 56.1799 140.357C55.8557 141.307 55.6936 142.366 55.6936 143.533C55.6936 144.7 55.8557 145.764 56.1799 146.726C56.5148 147.677 56.9794 148.504 57.5737 149.206C58.1788 149.897 58.8919 150.432 59.7131 150.81C60.5451 151.189 61.4581 151.378 62.4521 151.378Z" fill="black"/>
<path d="M80.1365 156.888V130.146H88.5482C91.0981 130.146 93.1079 130.702 94.5773 131.815C96.0468 132.928 96.7816 134.608 96.7816 136.856C96.7816 139.579 95.6795 141.524 93.4752 142.69C95.3121 142.993 96.7167 143.706 97.6892 144.83C98.6616 145.954 99.1478 147.428 99.1478 149.254C99.1478 150.843 98.7859 152.21 98.0619 153.355C97.3488 154.489 96.3332 155.365 95.0149 155.981C93.7075 156.586 92.1624 156.888 90.3796 156.888H80.1365ZM86.3926 140.535H87.0409C88.2402 140.535 89.1532 140.292 89.7799 139.806C90.4174 139.319 90.7362 138.617 90.7362 137.699C90.7362 136.78 90.4282 136.094 89.8124 135.64C89.2073 135.186 88.2835 134.96 87.0409 134.96H86.3926V140.535ZM86.3926 152.058H88.1754C89.6557 152.058 90.7578 151.81 91.4817 151.313C92.2057 150.816 92.5676 150.065 92.5676 149.06C92.5676 148.034 92.1948 147.256 91.4493 146.726C90.7038 146.186 89.6125 145.916 88.1754 145.916H86.3926V152.058Z" fill="black"/>
<path d="M104.205 156.888V130.146H119.57V135.624H110.445V140.746H119.181V146.224H110.445V151.41H119.57V156.888H104.205Z" fill="black"/>
<path d="M35.4494 180C34.5201 180 33.6557 179.822 32.8562 179.465C32.062 179.109 31.3651 178.614 30.7654 177.982C30.1711 177.35 29.7065 176.615 29.3716 175.778C29.0366 174.935 28.8691 174.03 28.8691 173.063C28.8691 172.172 29.0177 171.31 29.3148 170.478C29.612 169.646 30.0469 168.906 30.6195 168.258C31.1922 167.604 31.8918 167.085 32.7184 166.702C33.5504 166.318 34.4931 166.126 35.5466 166.126C36.2381 166.126 36.8918 166.213 37.5077 166.386C38.1236 166.559 38.6882 166.799 39.2014 167.107C39.72 167.415 40.1711 167.777 40.5547 168.193L39.9145 169.133C39.4067 168.555 38.7692 168.093 38.002 167.747C37.2349 167.396 36.411 167.22 35.5304 167.22C34.6876 167.22 33.934 167.377 33.2695 167.69C32.6104 168.004 32.0512 168.433 31.592 168.979C31.1328 169.519 30.7843 170.138 30.5466 170.835C30.3089 171.526 30.19 172.256 30.19 173.023C30.19 173.849 30.3224 174.619 30.5871 175.332C30.8573 176.04 31.2327 176.661 31.7135 177.196C32.1944 177.726 32.7562 178.139 33.3991 178.436C34.042 178.728 34.7335 178.874 35.4737 178.874C36.0734 178.874 36.6622 178.774 37.2403 178.574C37.8184 178.374 38.337 178.085 38.7962 177.707C39.2608 177.329 39.6282 176.877 39.8983 176.353C40.1738 175.824 40.3116 175.23 40.3116 174.571V174.109H35.3845V173.112H41.5758V174.303C41.5758 175.249 41.3975 176.078 41.0409 176.791C40.6844 177.504 40.209 178.098 39.6147 178.574C39.0204 179.044 38.3613 179.4 37.6374 179.643C36.9134 179.881 36.1841 180 35.4494 180Z" fill="black"/>
<path d="M51.0699 180C49.5302 180 48.3714 179.579 47.5934 178.736C46.8209 177.893 46.4346 176.632 46.4346 174.951V166.37H47.6664V174.684C47.6664 176.062 47.9473 177.091 48.5092 177.772C49.0764 178.447 49.93 178.784 51.0699 178.784C52.2045 178.784 53.0526 178.447 53.6145 177.772C54.1818 177.091 54.4654 176.062 54.4654 174.684V166.37H55.7053V174.951C55.7053 176.632 55.3163 177.893 54.5383 178.736C53.7658 179.579 52.6096 180 51.0699 180Z" fill="black"/>
<path d="M61.4817 179.741V166.37H62.7135V179.741H61.4817Z" fill="black"/>
<path d="M68.6896 179.741V166.37H71.7042C72.6496 166.37 73.5302 166.54 74.346 166.88C75.1672 167.22 75.883 167.696 76.4935 168.306C77.104 168.911 77.5821 169.619 77.9278 170.43C78.2736 171.24 78.4465 172.118 78.4465 173.063C78.4465 174.003 78.2763 174.878 77.9359 175.689C77.5956 176.499 77.1175 177.21 76.5016 177.82C75.8911 178.425 75.1753 178.898 74.3541 179.238C73.5383 179.573 72.655 179.741 71.7042 179.741H68.6896ZM69.9214 178.639H71.5907C72.3795 178.639 73.1088 178.498 73.7787 178.217C74.454 177.931 75.0429 177.537 75.5453 177.034C76.0532 176.526 76.4476 175.935 76.7285 175.259C77.0094 174.579 77.1499 173.844 77.1499 173.055C77.1499 172.266 77.0094 171.534 76.7285 170.859C76.4476 170.184 76.0532 169.592 75.5453 169.084C75.0429 168.576 74.454 168.182 73.7787 167.901C73.1034 167.615 72.3741 167.472 71.5907 167.472H69.9214V178.639Z" fill="black"/>
<path d="M83.5897 179.741V166.37H90.3239V167.455H84.8215V172.496H90.1294V173.582H84.8215V178.655H90.3239V179.741H83.5897Z" fill="black"/>
</g>
<defs>
<clipPath id="clip0_8_355">
<rect width="119.57" height="180" fill="white"/>
</clipPath>
</defs>
</svg>
